<mxfile host="65bd71144e">
    <diagram id="gm9Pe-P5cV04ZUUyipRG" name="Page-1">
        <mxGraphModel dx="709" dy="537" grid="0" gridSize="10" guides="1" tooltips="1" connect="1" arrows="1" fold="1" page="0" pageScale="1" pageWidth="1169" pageHeight="827" math="0" shadow="0">
            <root>
                <mxCell id="0"/>
                <mxCell id="1" parent="0"/>
                <mxCell id="2" value="&lt;h2&gt;&lt;b&gt;&lt;font style=&quot;font-size: 35px;&quot;&gt;PROGRAM&lt;/font&gt;&lt;/b&gt;&lt;/h2&gt;" style="rounded=1;whiteSpace=wrap;html=1;fillColor=#CCCCCC;strokeColor=none;" vertex="1" parent="1">
                    <mxGeometry x="400" y="80" width="240" height="80" as="geometry"/>
                </mxCell>
                <mxCell id="3" value="" style="endArrow=none;html=1;fontSize=35;strokeWidth=10;strokeColor=#CCCCCC;" edge="1" parent="1">
                    <mxGeometry width="50" height="50" relative="1" as="geometry">
                        <mxPoint x="280" y="200" as="sourcePoint"/>
                        <mxPoint x="760" y="200" as="targetPoint"/>
                    </mxGeometry>
                </mxCell>
                <mxCell id="4" value="" style="rounded=0;whiteSpace=wrap;html=1;fontSize=35;fillColor=#CCCCCC;strokeWidth=2;strokeColor=#CCCCCC;" vertex="1" parent="1">
                    <mxGeometry x="281" y="200" width="40" height="20" as="geometry"/>
                </mxCell>
                <mxCell id="6" value="" style="rounded=0;whiteSpace=wrap;html=1;fontSize=35;fillColor=#CCCCCC;strokeWidth=2;strokeColor=none;" vertex="1" parent="1">
                    <mxGeometry x="500" y="200" width="40" height="20" as="geometry"/>
                </mxCell>
                <mxCell id="7" value="" style="rounded=0;whiteSpace=wrap;html=1;fontSize=35;fillColor=#CCCCCC;strokeWidth=2;strokeColor=#CCCCCC;" vertex="1" parent="1">
                    <mxGeometry x="719" y="200" width="40" height="20" as="geometry"/>
                </mxCell>
                <mxCell id="10" value="MYSQL" style="text;html=1;align=center;verticalAlign=middle;resizable=0;points=[];autosize=1;strokeColor=none;fillColor=none;fontSize=25;fontColor=#000000;" vertex="1" parent="1">
                    <mxGeometry x="246" y="230" width="110" height="40" as="geometry"/>
                </mxCell>
                <mxCell id="11" value="MAIN" style="text;html=1;align=center;verticalAlign=middle;resizable=0;points=[];autosize=1;strokeColor=none;fillColor=none;fontSize=25;fontColor=#000000;" vertex="1" parent="1">
                    <mxGeometry x="475" y="230" width="90" height="40" as="geometry"/>
                </mxCell>
                <mxCell id="12" value="WEB" style="text;html=1;align=center;verticalAlign=middle;resizable=0;points=[];autosize=1;strokeColor=none;fillColor=none;fontSize=25;fontColor=#000000;" vertex="1" parent="1">
                    <mxGeometry x="699" y="230" width="80" height="40" as="geometry"/>
                </mxCell>
                <mxCell id="13" value="&lt;font size=&quot;1&quot;&gt;&lt;b&gt;Khối xử lý trung tâm Raspberry&lt;/b&gt;&lt;/font&gt;" style="ellipse;whiteSpace=wrap;html=1;strokeColor=#000000;strokeWidth=2;fontSize=25;fontColor=#000000;fillColor=#FFFFFF;gradientColor=none;" vertex="1" parent="1">
                    <mxGeometry x="460" y="466" width="120" height="80" as="geometry"/>
                </mxCell>
                <mxCell id="14" value="&lt;font style=&quot;font-size: 11px;&quot;&gt;Khối Web Server&lt;/font&gt;" style="rounded=1;whiteSpace=wrap;html=1;strokeColor=#000000;strokeWidth=2;fontSize=25;fontColor=#000000;fillColor=#FFFFFF;gradientColor=none;spacingTop=-12;" vertex="1" parent="1">
                    <mxGeometry x="280" y="476" width="120" height="60" as="geometry"/>
                </mxCell>
                <mxCell id="15" value="&lt;font style=&quot;font-size: 11px;&quot;&gt;Khối cảm biến.&lt;br&gt;(DHT22)&lt;/font&gt;" style="rounded=1;html=1;strokeColor=#000000;strokeWidth=2;fontSize=25;fontColor=#000000;fillColor=#FFFFFF;gradientColor=none;spacingTop=-10;spacingLeft=3;spacingBottom=0;spacing=2;" vertex="1" parent="1">
                    <mxGeometry x="640" y="473" width="120" height="60" as="geometry"/>
                </mxCell>
                <mxCell id="16" value="&lt;font style=&quot;font-size: 11px;&quot;&gt;Khối thiết bị.&lt;br&gt;(đèn LCD)&lt;/font&gt;" style="rounded=1;html=1;strokeColor=#000000;strokeWidth=2;fontSize=25;fontColor=#000000;fillColor=#FFFFFF;gradientColor=none;spacingTop=-11;" vertex="1" parent="1">
                    <mxGeometry x="460" y="596" width="120" height="60" as="geometry"/>
                </mxCell>
                <mxCell id="17" value="" style="endArrow=classic;startArrow=classic;html=1;strokeColor=#000000;strokeWidth=1;fontSize=25;fontColor=#000000;exitX=1;exitY=0.5;exitDx=0;exitDy=0;entryX=0;entryY=0.5;entryDx=0;entryDy=0;" edge="1" parent="1" source="14" target="13">
                    <mxGeometry width="50" height="50" relative="1" as="geometry">
                        <mxPoint x="470" y="618" as="sourcePoint"/>
                        <mxPoint x="520" y="568" as="targetPoint"/>
                    </mxGeometry>
                </mxCell>
                <mxCell id="20" value="" style="endArrow=classic;startArrow=classic;html=1;strokeColor=#000000;strokeWidth=1;fontSize=25;fontColor=#000000;exitX=1;exitY=0.5;exitDx=0;exitDy=0;entryX=0;entryY=0.5;entryDx=0;entryDy=0;" edge="1" parent="1">
                    <mxGeometry width="50" height="50" relative="1" as="geometry">
                        <mxPoint x="580" y="505.76" as="sourcePoint"/>
                        <mxPoint x="640" y="505.76" as="targetPoint"/>
                    </mxGeometry>
                </mxCell>
                <mxCell id="21" value="" style="endArrow=classic;startArrow=classic;html=1;strokeColor=#000000;strokeWidth=1;fontSize=25;fontColor=#000000;entryX=0.504;entryY=-0.016;entryDx=0;entryDy=0;entryPerimeter=0;" edge="1" parent="1" target="16">
                    <mxGeometry width="50" height="50" relative="1" as="geometry">
                        <mxPoint x="520" y="547" as="sourcePoint"/>
                        <mxPoint x="520" y="595" as="targetPoint"/>
                    </mxGeometry>
                </mxCell>
                <mxCell id="22" value="Wifi" style="text;html=1;align=center;verticalAlign=middle;resizable=0;points=[];autosize=1;strokeColor=none;fillColor=none;fontSize=11;fontColor=#000000;" vertex="1" parent="1">
                    <mxGeometry x="410" y="472" width="36" height="25" as="geometry"/>
                </mxCell>
                <mxCell id="23" value="OneWire,&lt;br&gt;ADC..." style="text;html=1;align=center;verticalAlign=middle;resizable=0;points=[];autosize=1;strokeColor=none;fillColor=none;fontSize=11;fontColor=#000000;" vertex="1" parent="1">
                    <mxGeometry x="576" y="466" width="64" height="38" as="geometry"/>
                </mxCell>
            </root>
        </mxGraphModel>
    </diagram>
</mxfile>